<?xml version="1.0" encoding="utf-8"?>
<!-- Generator: Adobe Illustrator 15.0.0, SVG Export Plug-In . SVG Version: 6.00 Build 0)  -->
<!DOCTYPE svg PUBLIC "-//W3C//DTD SVG 1.1//EN" "http://www.w3.org/Graphics/SVG/1.1/DTD/svg11.dtd">
<svg version="1.1" id="Layer_1" xmlns="http://www.w3.org/2000/svg" xmlns:xlink="http://www.w3.org/1999/xlink" x="0px" y="0px"
	 width="595.28px" height="641.89px" viewBox="0 0 595.28 841.89" enable-background="new 0 0 595.28 841.89" xml:space="preserve">
<line fill="#fff" stroke="#fff" stroke-width="16" stroke-miterlimit="10" x1="89" y1="54" x2="48" y2="123"/>
<line fill="#fff" stroke="#fff" stroke-width="16" stroke-miterlimit="10" x1="48" y1="123" x2="56" y2="249"/>
<line fill="#fff" stroke="#fff" stroke-width="16" stroke-miterlimit="10" x1="56" y1="249" x2="30" y2="351"/>
<line fill="#fff" stroke="#fff" stroke-width="16" stroke-miterlimit="10" x1="30" y1="351" x2="113" y2="411"/>
<line fill="#fff" stroke="#fff" stroke-width="16" stroke-miterlimit="10" x1="113" y1="411" x2="254" y2="394"/>
<line fill="#fff" stroke="#fff" stroke-width="16" stroke-miterlimit="10" x1="254" y1="394" x2="443" y2="411"/>
<line fill="#fff" stroke="#fff" stroke-width="16" stroke-miterlimit="10" x1="443" y1="411" x2="560" y2="386"/>
<line fill="#fff" stroke="#fff" stroke-width="16" stroke-miterlimit="10" x1="560" y1="386" x2="581" y2="266"/>
<line fill="#fff" stroke="#fff" stroke-width="16" stroke-miterlimit="10" x1="581" y1="266" x2="549" y2="164"/>
<line fill="#fff" stroke="#fff" stroke-width="16" stroke-miterlimit="10" x1="549" y1="164" x2="581" y2="54"/>
<line fill="#fff" stroke="#fff" stroke-width="16" stroke-miterlimit="10" x1="581" y1="54" x2="527" y2="32"/>
<line fill="#fff" stroke="#fff" stroke-width="16" stroke-miterlimit="10" x1="527" y1="32" x2="434" y2="43"/>
<line fill="#fff" stroke="#fff" stroke-width="16" stroke-miterlimit="10" x1="434" y1="43" x2="267" y2="24"/>
<line fill="#fff" stroke="#fff" stroke-width="16" stroke-miterlimit="10" x1="267" y1="24" x2="202" y2="37.5"/>
<line fill="#fff" stroke="#fff" stroke-width="16" stroke-miterlimit="10" x1="202" y1="37.5" x2="89" y2="15"/>
<line fill="#fff" stroke="#fff" stroke-width="16" stroke-miterlimit="10" x1="89" y1="15" x2="89" y2="54"/>
<line fill="#fff" stroke="#fff" stroke-width="16" stroke-miterlimit="10" x1="752" y1="486" x2="752" y2="525"/>
</svg>
