<?xml version="1.0" encoding="UTF-8" standalone="no"?>
<svg viewBox="0 0 500 500" xmlns="http://www.w3.org/2000/svg">
<defs>
<filter id="filter3171">
<feGaussianBlur stdDeviation="6.57588"/>
</filter>
</defs>
<path d="m166.37761,68.84316c3.597,0 35.974-23.9827 88.737-26.3811 71.948-8.394 101.927,38.3725 101.927,38.3725-2.398,5.9957 49.164-37.1734 79.143-33.576 32.377,4.7966 45.568,19.1861 41.97,49.1646-2.398,19.1867-22.784,27.5807-27.58,37.1737 2.398,4.796 28.779,20.386 28.779,62.356s-26.381,64.753-25.182,64.753 26.381,41.97 7.195,67.152-73.148,1.2-81.542-3.597c-8.394,2.398-8.394,19.186-32.377,22.784s-53.961-7.195-53.961-7.195l-11.991-9.593 129.507,135.502-189.465-128.308c-15.588,4.797-11.991,8.394-56.359,13.191-37.174,0-28.78-7.195-40.771-11.992-14.39,9.593-73.1478,22.785-92.3342-13.19-15.58881-45.567 8.3941-56.36 13.1906-64.754-4.7965-10.792-20.3854-28.779-17.9871-62.355 0-43.17 10.7923-64.754 20.3855-71.949-4.7966-9.593-23.9829-47.9659 17.987-71.9484 69.5502-17.9872 99.52919,15.5889 100.7282,14.3897z" fill-opacity=".49804" fill-rule="evenodd" filter="url(#filter3171)"/>
<path d="m151.81451,54.28005c3.597,0 35.974-23.9827 88.737-26.3811 71.948-8.394 101.927,38.3725 101.927,38.3725-2.398,5.9957 49.164-37.1734 79.143-33.576 32.377,4.7966 45.568,19.1861 41.97,49.1646-2.398,19.1867-22.784,27.5807-27.58,37.1737 2.398,4.796 28.779,20.386 28.779,62.356s-26.381,64.753-25.182,64.753 26.381,41.97 7.195,67.152-73.148,1.2-81.542-3.597c-8.394,2.398-8.394,19.186-32.377,22.784s-53.961-7.195-53.961-7.195l-11.991-9.593 129.507,135.502-189.465-128.308c-15.588,4.797-11.991,8.394-56.359,13.191-37.174,0-28.78-7.195-40.771-11.992-14.39,9.593-73.1478,22.785-92.3342-13.19-15.58881-45.567 8.3941-56.36 13.1906-64.754-4.7965-10.792-20.3854-28.779-17.9871-62.355 0-43.17 10.7923-64.754 20.3855-71.949-4.7966-9.593-23.9829-47.9659 17.987-71.9484 69.5502-17.9872 99.5292,15.5889 100.7282,14.3897z" fill="#84c5e7" fill-rule="evenodd" stroke="#fff" stroke-linejoin="round" stroke-width="8"/>
</svg>
